# xmcd
#
# Track frame offsets:
#	150
#	20315
#	37922
#	52632
#	73361
#	95279
#	112517
#	130743
#	146512
#	162892
#	178015
#	195182
#
# Disc length: 2782 seconds
#
# Revision: 2
# Processed by: cddbd v1.5.2PL0 Copyright (c) Steve Scherf et al.
# Submitted via: EasyCDDAExtractor 2010.4.0.0
#
DISCID=8a0adc0c
DTITLE=꿈이 있는 자유 - 꿈이 있는 자유 6집 - 내 마음과 같은 노래
DYEAR=2008
DGENRE=Contemporary Christian
TTITLE0=아침길
TTITLE1=주께서 주신 기쁨
TTITLE2=내 마음과 같은 노래
TTITLE3=나무 아래 그 길
TTITLE4=애가
TTITLE5=가난한 자에게
TTITLE6=너를 위해
TTITLE7=파도를 기다린다
TTITLE8=시편 42
TTITLE9=내 마음이
TTITLE10=주의 강가로
TTITLE11=휘장을 지나
EXTD=짼횧?횑?횜쨈횂 ?횣?짱 6 YEAR: 2008
EXTT0=
EXTT1=
EXTT2=
EXTT3=
EXTT4=
EXTT5=
EXTT6=
EXTT7=
EXTT8=
EXTT9=
EXTT10=
EXTT11=
PLAYORDER=
